<svg aria-hidden="true" style="position:absolute;width: 0; height: 0;overflow:hidden" version="1.1" xmlns="http://www.w3.org/2000/svg"><defs><symbol id="sass" xmlns="http://www.w3.org/2000/svg" viewBox="0 0 32 32"><path d="M26.11 17.572a5.8 5.8 0 0 0-2.537.588 5.345 5.345 0 0 1-.568-1.314 3.53 3.53 0 0 1-.051-1.1 9.811 9.811 0 0 1 .332-1.192c-.005-.051-.061-.292-.624-.3s-1.048.107-1.1.256a6.171 6.171 0 0 0-.235.834 19.686 19.686 0 0 1-1.713 3.294 3.186 3.186 0 0 1-.44-2.066 9.811 9.811 0 0 1 .332-1.192c-.005-.051-.061-.292-.624-.3s-1.048.107-1.1.256-.118.5-.235.834-1.483 3.386-1.841 4.173c-.184.4-.343.726-.455.946a.233.233 0 0 1-.02.041l-.153.292v.005c-.077.138-.159.266-.2.266a1.711 1.711 0 0 1 .01-.869c.2-1.059.69-2.705.685-2.762 0-.031.092-.317-.317-.465a.508.508 0 0 0-.578.1c-.036 0-.061.087-.061.087s.445-1.851-.849-1.851a3.855 3.855 0 0 0-2.475 1.683c-.348.189-1.089.593-1.882 1.028-.3.169-.614.338-.905.5-.02-.02-.041-.046-.061-.066C6.87 17.6 3.975 16.416 4.1 14.171c.046-.818.327-2.966 5.559-5.575 4.306-2.122 7.733-1.534 8.326-.23.849 1.862-1.836 5.319-6.285 5.82a3.351 3.351 0 0 1-2.813-.711c-.235-.256-.271-.271-.358-.22-.143.077-.051.307 0 .44a2.626 2.626 0 0 0 1.606 1.263 8.55 8.55 0 0 0 5.217-.517c2.7-1.043 4.8-3.943 4.184-6.372-.619-2.465-4.71-3.278-8.582-1.9a19.5 19.5 0 0 0-6.595 3.783c-2.133 1.995-2.47 3.728-2.332 4.455.5 2.578 4.051 4.255 5.472 5.5a8.554 8.554 0 0 1-.194.107c-.711.353-3.421 1.77-4.1 3.268-.767 1.7.123 2.915.711 3.079a4.374 4.374 0 0 0 4.71-1.908 4.725 4.725 0 0 0 .423-4.353.107.107 0 0 0-.02-.031l.557-.327a27.2 27.2 0 0 1 1.028-.578 6.74 6.74 0 0 0-.363 1.862 3.886 3.886 0 0 0 .834 2.7.921.921 0 0 0 .675.22c.6 0 .875-.5 1.176-1.094.368-.726.7-1.57.7-1.57s-.414 2.281.711 2.281c.409 0 .823-.532 1.008-.8v.005l.031-.051.066-.107v-.01c.164-.286.532-.936 1.079-2.015.706-1.391 1.386-3.13 1.386-3.13a8.888 8.888 0 0 0 .271 1.13 10.643 10.643 0 0 0 .583 1.309c-.164.23-.266.358-.266.358l.005.005c-.133.174-.276.363-.435.547a16.3 16.3 0 0 0-1.314 1.647.447.447 0 0 0 .123.6 1.116 1.116 0 0 0 .685.113 3.147 3.147 0 0 0 1.028-.235 3.45 3.45 0 0 0 .885-.465 1.98 1.98 0 0 0 .849-1.744 3.521 3.521 0 0 0-.322-1.233c.051-.072.1-.143.148-.215a23.428 23.428 0 0 0 1.534-2.649 8.888 8.888 0 0 0 .271 1.13 7.57 7.57 0 0 0 .5 1.125 4.861 4.861 0 0 0-1.497 1.922c-.322.931-.072 1.35.4 1.447a1.425 1.425 0 0 0 .747-.153 3.4 3.4 0 0 0 .946-.486 2.126 2.126 0 0 0 1.043-1.729 3.268 3.268 0 0 0-.235-1.023 5.356 5.356 0 0 1 2.716-.312c2.434.286 2.915 1.805 2.823 2.445a1.618 1.618 0 0 1-.772 1.094c-.169.107-.225.143-.21.22.02.113.1.107.245.087A1.9 1.9 0 0 0 30 20.7c.077-1.5-1.355-3.145-3.887-3.13ZM7.33 23.9c-.808.88-1.933 1.212-2.419.931-.522-.3-.317-1.6.675-2.532a12.884 12.884 0 0 1 1.9-1.417c.118-.072.292-.174.5-.3l.056-.031.123-.077A3.493 3.493 0 0 1 7.33 23.9Zm5.881-4c-.281.685-.869 2.44-1.227 2.342-.307-.082-.5-1.412-.061-2.726a6.193 6.193 0 0 1 .956-1.754c.44-.491.926-.655 1.043-.455a9.062 9.062 0 0 1-.711 2.593Zm4.853 2.322c-.118.061-.23.1-.281.072-.036-.02.051-.1.051-.1s.609-.655.849-.951c.138-.174.3-.378.476-.609v.066c0 .782-.757 1.309-1.094 1.524Zm3.744-.854c-.087-.061-.072-.266.22-.905a3.408 3.408 0 0 1 .834-1.074 1.448 1.448 0 0 1 .082.471 1.547 1.547 0 0 1-1.135 1.509Z" style="fill:#cd6799"/></symbol><symbol id="react" xmlns="http://www.w3.org/2000/svg"  fill="none" viewBox="0 0 32 32"><path fill="#53C1DE" d="M18.679 15.976c0-1.435-1.2-2.598-2.679-2.598-1.48 0-2.679 1.163-2.679 2.598 0 1.434 1.2 2.597 2.679 2.597 1.48 0 2.679-1.163 2.679-2.597Z"/><path fill="#53C1DE" fill-rule="evenodd" d="M24.7 11.154c.566-2.23 1.277-6.363-1.23-7.764-2.495-1.395-5.742 1.278-7.456 2.883-1.71-1.589-5.048-4.25-7.552-2.845-2.494 1.4-1.725 5.465-1.147 7.708-2.327.64-6.315 2.02-6.315 4.84 0 2.811 3.984 4.313 6.297 4.953-.58 2.255-1.311 6.262 1.186 7.659 2.514 1.405 5.842-1.194 7.572-2.816 1.726 1.614 4.942 4.23 7.437 2.83 2.504-1.406 1.852-5.484 1.273-7.74 2.242-.641 6.235-2.11 6.235-4.886 0-2.793-4.01-4.184-6.3-4.822Zm-.284 8.513a28.65 28.65 0 0 0-1.519-3.685 28.625 28.625 0 0 0 1.46-3.631c1.679.472 5.361 1.55 5.361 3.625 0 2.094-3.533 3.183-5.302 3.691Zm-1.566 7.859c-1.862 1.045-4.628-1.456-5.902-2.645a29.352 29.352 0 0 0 2.514-3.096c1.45-.125 2.821-.329 4.064-.607.407 1.595 1.194 5.298-.676 6.348Zm-13.726-.015c-1.863-1.041-1.011-4.616-.584-6.278 1.228.264 2.589.453 4.042.568.83 1.132 1.7 2.173 2.576 3.085-1.083 1.015-4.163 3.671-6.034 2.625ZM2.28 15.976c0-2.102 3.661-3.173 5.378-3.643a29.257 29.257 0 0 0 1.462 3.673 29.689 29.689 0 0 0-1.48 3.726c-1.637-.454-5.36-1.653-5.36-3.756ZM9.104 4.504c1.87-1.05 4.77 1.506 6.012 2.656a29.97 29.97 0 0 0-2.556 3.066c-1.41.127-2.761.33-4.003.604-.466-1.81-1.321-5.278.547-6.326Zm11.275 7.073c.957.117 1.875.273 2.736.464-.259.803-.581 1.643-.96 2.504a41.165 41.165 0 0 0-1.776-2.968Zm-4.365-3.529c.591.621 1.183 1.314 1.766 2.066a38.897 38.897 0 0 0-3.546 0 27.651 27.651 0 0 1 1.78-2.066Zm-6.157 6.496a26.884 26.884 0 0 1-.954-2.517 29.762 29.762 0 0 1 2.72-.452 36.303 36.303 0 0 0-1.766 2.97Zm1.793 5.922a28.076 28.076 0 0 1-2.764-.431c.264-.83.59-1.692.972-2.568a36.306 36.306 0 0 0 1.792 2.999Zm4.4 3.525a28.142 28.142 0 0 1-1.805-2.094c1.188.045 2.378.045 3.566-.006a26.611 26.611 0 0 1-1.761 2.1Zm6.117-6.569c.4.886.739 1.744 1.007 2.559a27.97 27.97 0 0 1-2.798.462c.639-.982 1.239-1.99 1.79-3.02Zm-3.42 3.172a41.486 41.486 0 0 1-5.463.01 34.923 34.923 0 0 1-2.746-4.598 34.908 34.908 0 0 1 2.73-4.59c1.82-.133 3.65-.134 5.469 0a39.137 39.137 0 0 1 2.739 4.572 39.146 39.146 0 0 1-2.729 4.606ZM22.83 4.467c1.87 1.046 1.038 4.76.63 6.376a31.597 31.597 0 0 0-4.012-.615 29.379 29.379 0 0 0-2.536-3.069c1.258-1.175 4.066-3.728 5.918-2.692Z" clip-rule="evenodd"/></symbol><symbol id="css" xmlns="http://www.w3.org/2000/svg" fill="none" viewBox="0 0 32 32"><path fill="#1172B8" d="M6 28 4 3h24l-2 25-10 3-10-3Z"/><path fill="#3AD" d="M26 5H16v24.5l8-2.5 2-22Z"/><path fill="#fff" d="M19.5 17.5h-10L9 14l8-2.5H9l-.5-3H24l-.5 3.5-6.5 2.5h6L22 24l-6 2-6-2-.5-5h3l.5 2.5 3 1 3-1 .5-4Z"/></symbol><symbol  id="html"  viewBox="0 0 32 32" fill="none" xmlns="http://www.w3.org/2000/svg"><path d="M6 28L4 3H28L26 28L16 31L6 28Z" fill="#E44D26"/><path d="M26 5H16V29.5L24 27L26 5Z" fill="#F16529"/><path d="M9.5 17.5L8.5 8H24L23.5 11H11.5L12 14.5H23L22 24L16 26L10 24L9.5 19H12.5L13 21.5L16 22.5L19 21.5L19.5 17.5H9.5Z" fill="white"/></symbol><symbol id="redux" xmlns="http://www.w3.org/2000/svg" fill="none" viewBox="0 0 32 32"><path fill="#764ABC" d="M21.787 21.556a2.114 2.114 0 0 0 1.909-2.177c-.039-1.126-.993-2.027-2.138-2.027h-.077a2.115 2.115 0 0 0-2.061 2.177c.038.563.267 1.051.61 1.389-1.297 2.515-3.283 4.354-6.26 5.893-2.024 1.05-4.123 1.426-6.223 1.163-1.718-.225-3.054-.976-3.894-2.214-1.222-1.84-1.336-3.829-.305-5.818.725-1.426 1.87-2.477 2.596-3.003a19.962 19.962 0 0 1-.497-1.914c-5.535 3.941-4.963 9.27-3.283 11.786 1.26 1.876 3.818 3.04 6.643 3.04.763 0 1.527-.075 2.29-.263 4.887-.938 8.59-3.79 10.69-8.032Zm6.719-4.654c-2.901-3.34-7.177-5.18-12.064-5.18h-.61a2.102 2.102 0 0 0-1.871-1.126h-.077a2.115 2.115 0 0 0-2.061 2.177c.038 1.126.992 2.027 2.138 2.027h.076a2.15 2.15 0 0 0 1.87-1.276h.688c2.901 0 5.65.825 8.132 2.44 1.908 1.238 3.283 2.852 4.046 4.804.65 1.576.61 3.115-.076 4.429-1.07 1.989-2.863 3.077-5.23 3.077-1.527 0-2.978-.45-3.742-.788a22.52 22.52 0 0 1-1.718 1.351c1.642.751 3.322 1.164 4.925 1.164 3.665 0 6.376-1.99 7.406-3.979 1.107-2.177 1.031-5.93-1.832-9.12ZM9.112 22.194c.039 1.126.993 2.027 2.138 2.027h.077a2.115 2.115 0 0 0 2.061-2.177c-.038-1.126-.993-2.027-2.138-2.027h-.076c-.076 0-.191 0-.267.037-1.566-2.552-2.215-5.33-1.985-8.332.152-2.252.916-4.204 2.252-5.818 1.107-1.388 3.245-2.064 4.696-2.101 4.046-.076 5.764 4.879 5.879 6.868.496.113 1.336.376 1.909.563-.459-6.08-4.276-9.233-7.941-9.233-3.436 0-6.605 2.44-7.865 6.043-1.756 4.804-.61 9.42 1.527 13.061-.19.263-.305.676-.267 1.089Z"/></symbol><symbol id="tailwind" xmlns="http://www.w3.org/2000/svg"  viewBox="0 0 32 32"><path d="M9 13.7q1.4-5.6 7-5.6c5.6 0 6.3 4.2 9.1 4.9q2.8.7 4.9-2.1-1.4 5.6-7 5.6c-5.6 0-6.3-4.2-9.1-4.9q-2.8-.7-4.9 2.1Zm-7 8.4q1.4-5.6 7-5.6c5.6 0 6.3 4.2 9.1 4.9q2.8.7 4.9-2.1-1.4 5.6-7 5.6c-5.6 0-6.3-4.2-9.1-4.9q-2.8-.7-4.9 2.1Z" style="fill:#44a8b3"/></symbol><symbol xmlns="http://www.w3.org/2000/svg" width="800" height="800" fill="none" viewBox="0 0 32 32"><path fill="#1172B8" d="M6 28 4 3h24l-2 25-10 3-10-3Z"/><path fill="#3AD" d="M26 5H16v24.5l8-2.5 2-22Z"/><path fill="#fff" d="M19.5 17.5h-10L9 14l8-2.5H9l-.5-3H24l-.5 3.5-6.5 2.5h6L22 24l-6 2-6-2-.5-5h3l.5 2.5 3 1 3-1 .5-4Z"/></symbol><symbol id="js" xmlns="http://www.w3.org/2000/svg"  preserveAspectRatio="xMinYMin meet" viewBox="0 0 256 256"><path fill="#F7DF1E" d="M0 0h256v256H0V0z"/><path d="m67.312 213.932 19.59-11.856c3.78 6.701 7.218 12.371 15.465 12.371 7.905 0 12.89-3.092 12.89-15.12v-81.798h24.057v82.138c0 24.917-14.606 36.259-35.916 36.259-19.245 0-30.416-9.967-36.087-21.996m85.07-2.576 19.588-11.341c5.157 8.421 11.859 14.607 23.715 14.607 9.969 0 16.325-4.984 16.325-11.858 0-8.248-6.53-11.17-17.528-15.98l-6.013-2.58c-17.357-7.387-28.87-16.667-28.87-36.257 0-18.044 13.747-31.792 35.228-31.792 15.294 0 26.292 5.328 34.196 19.247l-18.732 12.03c-4.125-7.389-8.591-10.31-15.465-10.31-7.046 0-11.514 4.468-11.514 10.31 0 7.217 4.468 10.14 14.778 14.608l6.014 2.577c20.45 8.765 31.963 17.7 31.963 37.804 0 21.654-17.012 33.51-39.867 33.51-22.339 0-36.774-10.654-43.819-24.574"/></symbol><symbol id="telegram"  viewBox="0 0 50 50"><path d="M25,2c12.703,0,23,10.297,23,23S37.703,48,25,48S2,37.703,2,25S12.297,2,25,2z M32.934,34.375	c0.423-1.298,2.405-14.234,2.65-16.783c0.074-0.772-0.17-1.285-0.648-1.514c-0.578-0.278-1.434-0.139-2.427,0.219	c-1.362,0.491-18.774,7.884-19.78,8.312c-0.954,0.405-1.856,0.847-1.856,1.487c0,0.45,0.267,0.703,1.003,0.966	c0.766,0.273,2.695,0.858,3.834,1.172c1.097,0.303,2.346,0.04,3.046-0.395c0.742-0.461,9.305-6.191,9.92-6.693	c0.614-0.502,1.104,0.141,0.602,0.644c-0.502,0.502-6.38,6.207-7.155,6.997c-0.941,0.959-0.273,1.953,0.358,2.351	c0.721,0.454,5.906,3.932,6.687,4.49c0.781,0.558,1.573,0.811,2.298,0.811C32.191,36.439,32.573,35.484,32.934,34.375z"/></symbol><symbol id="github" viewBox="0 0 32 32"><path  fill-rule="evenodd" d="M15 0C6.713 0 0 6.713 0 15c0 6.637 4.294 12.244 10.256 14.231.75.131 1.031-.319 1.031-.712 0-.356-.018-1.538-.018-2.794-3.769.694-4.744-.919-5.044-1.763-.169-.43-.9-1.762-1.537-2.118-.526-.282-1.275-.975-.02-.994 1.182-.019 2.026 1.087 2.307 1.537 1.35 2.27 3.506 1.632 4.369 1.238.131-.975.525-1.631.956-2.006-3.338-.375-6.825-1.669-6.825-7.406 0-1.632.581-2.982 1.538-4.032-.15-.375-.675-1.912.15-3.975 0 0 1.256-.394 4.124 1.538 1.2-.338 2.475-.506 3.75-.506s2.55.168 3.75.506c2.87-1.95 4.126-1.538 4.126-1.538.825 2.063.3 3.6.15 3.975.956 1.05 1.537 2.382 1.537 4.032 0 5.756-3.506 7.03-6.844 7.406.544.468 1.013 1.369 1.013 2.775 0 2.006-.019 3.619-.019 4.125 0 .394.281.862 1.031.712A15.025 15.025 0 0 0 30 15c0-8.287-6.712-15-15-15Z" clip-rule="evenodd"/></symbol><symbol id="vscode" xmlns="http://www.w3.org/2000/svg" viewBox="0 0 32 32"><path d="m29.01 5.03-5.766-2.776a1.742 1.742 0 0 0-1.989.338L2.38 19.8a1.166 1.166 0 0 0-.08 1.647c.025.027.05.053.077.077l1.541 1.4a1.165 1.165 0 0 0 1.489.066L28.142 5.75A1.158 1.158 0 0 1 30 6.672v-.067a1.748 1.748 0 0 0-.99-1.575Z" style="fill:#0065a9"/><path d="m29.01 26.97-5.766 2.777a1.745 1.745 0 0 1-1.989-.338L2.38 12.2a1.166 1.166 0 0 1-.08-1.647c.025-.027.05-.053.077-.077l1.541-1.4A1.165 1.165 0 0 1 5.41 9.01l22.732 17.24A1.158 1.158 0 0 0 30 25.328v.072a1.749 1.749 0 0 1-.99 1.57Z" style="fill:#007acc"/><path d="M23.244 29.747a1.745 1.745 0 0 1-1.989-.338A1.025 1.025 0 0 0 23 28.684V3.316a1.024 1.024 0 0 0-1.749-.724 1.744 1.744 0 0 1 1.989-.339l5.765 2.772A1.748 1.748 0 0 1 30 6.6v18.8a1.748 1.748 0 0 1-.991 1.576Z" style="fill:#1f9cf0"/></symbol><symbol id="linkedin" viewBox="0 0 32 32"><g clip-path="url(#a)"><path  d="M15 .6C7.047.6.6 7.047.6 15S7.047 29.4 15 29.4 29.4 22.953 29.4 15 22.953.6 15 .6Zm-3.525 20.368H8.559v-9.383h2.916v9.383ZM9.999 10.432c-.921 0-1.516-.652-1.516-1.459 0-.824.613-1.457 1.553-1.457.941 0 1.517.633 1.535 1.457 0 .807-.594 1.46-1.572 1.46Zm12.126 10.536h-2.916v-5.2c0-1.21-.423-2.033-1.477-2.033-.806 0-1.284.557-1.496 1.093-.078.19-.098.46-.098.729v5.41h-2.917v-6.39c0-1.171-.037-2.151-.076-2.994h2.533l.133 1.303h.059c.384-.611 1.325-1.514 2.898-1.514 1.918 0 3.357 1.285 3.357 4.048v5.548Z"/></g><defs><clipPath id="a"><path fill="#fff" d="M0 0h30v30H0z"/></symbol><symbol id="telegram" ><path d="M25,2c12.703,0,23,10.297,23,23S37.703,48,25,48S2,37.703,2,25S12.297,2,25,2z M32.934,34.375	c0.423-1.298,2.405-14.234,2.65-16.783c0.074-0.772-0.17-1.285-0.648-1.514c-0.578-0.278-1.434-0.139-2.427,0.219	c-1.362,0.491-18.774,7.884-19.78,8.312c-0.954,0.405-1.856,0.847-1.856,1.487c0,0.45,0.267,0.703,1.003,0.966	c0.766,0.273,2.695,0.858,3.834,1.172c1.097,0.303,2.346,0.04,3.046-0.395c0.742-0.461,9.305-6.191,9.92-6.693	c0.614-0.502,1.104,0.141,0.602,0.644c-0.502,0.502-6.38,6.207-7.155,6.997c-0.941,0.959-0.273,1.953,0.358,2.351	c0.721,0.454,5.906,3.932,6.687,4.49c0.781,0.558,1.573,0.811,2.298,0.811C32.191,36.439,32.573,35.484,32.934,34.375z"/></symbol></defs></svg>