<svg aria-hidden="true" style="position:absolute;width: 0; height: 0;overflow:hidden" version="1.1" xmlns="http://www.w3.org/2000/svg"><defs><symbol id="webpack" xmlns="http://www.w3.org/2000/svg"  preserveAspectRatio="xMidYMid" viewBox="-17 0 290 290"><path fill="#FFF" d="m128 .048 128 72.405V217.31l-128 72.405L0 217.31V72.453z"/><path fill="#8ED6FB" d="m233.153 212.287-100.902 57.14V224.99l62.889-34.632 38.013 21.929Zm6.907-6.231V86.654l-36.902 21.3v76.8l36.902 21.302Zm-217.6 6.23 100.903 57.094v-44.438l-62.889-34.584-38.014 21.929Zm-6.907-6.23V86.654l36.903 21.3v76.8l-36.903 21.302Zm4.3-127.13 103.51-58.543v42.99L57.045 99.84l-.532.29-36.66-21.205Zm215.86 0L132.251 20.382v42.99l66.27 36.515.531.29 36.661-21.253Z"/><path fill="#1C78C0" d="m123.363 214.847-62.02-34.15v-67.574l62.02 35.792v65.932Zm8.888 0 62.02-34.101v-67.623l-62.02 35.792v65.932ZM65.497 105.298l62.31-34.246 62.26 34.246-62.26 35.937-62.31-35.937Z"/></symbol><symbol id="nodejs" xmlns="http://www.w3.org/2000/svg" preserveAspectRatio="xMinYMin meet" viewBox="0 -183.5 512 512"><g fill="#83CD29"><path d="M471.05 51.611c-1.244 0-2.454.257-3.525.863l-33.888 19.57c-2.193 1.264-3.526 3.65-3.526 6.189v39.069c0 2.537 1.333 4.92 3.526 6.187l8.85 5.109c4.3 2.119 5.885 2.086 7.842 2.086 6.366 0 10.001-3.863 10.001-10.576V81.542c0-.545-.472-.935-1.007-.935h-4.245c-.544 0-1.007.39-1.007.935v38.566c0 2.975-3.1 5.968-8.13 3.453l-9.21-5.396c-.326-.177-.576-.49-.576-.863v-39.07c0-.37.247-.747.576-.935L470.547 57.8a.998.998 0 0 1 1.007 0l33.817 19.498c.322.194.576.553.576.936v39.069c0 .373-.188.755-.504.935l-33.889 19.498c-.29.173-.69.173-1.007 0l-8.706-5.18a.905.905 0 0 0-.863 0c-2.403 1.362-2.855 1.52-5.109 2.302-.555.194-1.398.495.288 1.44l11.368 6.69a6.995 6.995 0 0 0 3.526.936 6.949 6.949 0 0 0 3.525-.935l33.889-19.499c2.193-1.275 3.525-3.65 3.525-6.187v-39.07c0-2.538-1.332-4.92-3.525-6.187l-33.889-19.57c-1.062-.607-2.28-.864-3.525-.864z"/><path d="M480.116 79.528c-9.65 0-15.397 4.107-15.397 10.937 0 7.408 5.704 9.444 14.966 10.36 11.08 1.085 11.943 2.712 11.943 4.893 0 3.783-3.016 5.396-10.144 5.396-8.957 0-10.925-2.236-11.584-6.691-.078-.478-.447-.864-.936-.864h-4.389c-.54 0-1.007.466-1.007 1.008 0 5.703 3.102 12.447 17.916 12.447 10.723 0 16.908-4.209 16.908-11.584 0-7.31-4.996-9.273-15.398-10.648-10.51-1.391-11.512-2.072-11.512-4.533 0-2.032.85-4.75 8.634-4.75 6.954 0 9.524 1.5 10.577 6.189.092.44.48.791.935.791h4.39c.27 0 .532-.166.719-.36.184-.207.314-.44.288-.719-.68-8.074-6.064-11.872-16.909-11.872z"/></g><path fill="#404137" d="M271.821.383a2.181 2.181 0 0 0-1.08.287 2.18 2.18 0 0 0-1.079 1.871v55.042c0 .54-.251 1.024-.719 1.295a1.501 1.501 0 0 1-1.511 0l-8.994-5.18a4.31 4.31 0 0 0-4.317 0l-35.903 20.721c-1.342.775-2.158 2.264-2.158 3.814v41.443c0 1.548.817 2.966 2.158 3.741l35.903 20.722a4.3 4.3 0 0 0 4.317 0l35.903-20.722a4.308 4.308 0 0 0 2.159-3.741V16.356a4.386 4.386 0 0 0-2.23-3.814L272.9.598c-.335-.187-.707-.22-1.079-.215zM40.861 52.115c-.684.027-1.328.147-1.942.503L3.015 73.34a4.3 4.3 0 0 0-2.158 3.741L.929 132.7c0 .773.399 1.492 1.079 1.87a2.096 2.096 0 0 0 2.159 0l21.297-12.231c1.349-.802 2.23-2.196 2.23-3.742V92.623c0-1.55.815-2.972 2.159-3.742l9.065-5.252a4.251 4.251 0 0 1 2.159-.576c.74 0 1.5.185 2.158.576l9.066 5.252a4.296 4.296 0 0 1 2.159 3.742v25.973c0 1.546.89 2.95 2.23 3.742l21.297 12.232a2.096 2.096 0 0 0 2.159 0 2.164 2.164 0 0 0 1.08-1.871l.07-55.618a4.28 4.28 0 0 0-2.158-3.741L43.235 52.618c-.607-.356-1.253-.475-1.942-.503h-.432zm322.624.503c-.75 0-1.485.19-2.158.576l-35.903 20.722a4.306 4.306 0 0 0-2.159 3.741V119.1c0 1.559.878 2.971 2.23 3.742l35.616 20.29c1.315.75 2.921.807 4.245.07l21.585-12.015c.685-.38 1.148-1.09 1.151-1.87a2.126 2.126 0 0 0-1.079-1.871l-36.119-20.722c-.676-.386-1.151-1.167-1.151-1.943v-12.95c0-.775.48-1.485 1.151-1.871l11.224-6.476a2.155 2.155 0 0 1 2.159 0L375.5 89.96a2.152 2.152 0 0 1 1.08 1.87v10.217a2.15 2.15 0 0 0 1.079 1.87c.673.389 1.487.39 2.158 0L401.331 91.4a4.325 4.325 0 0 0 2.159-3.742v-10c0-1.545-.82-2.966-2.159-3.742l-35.687-20.722a4.279 4.279 0 0 0-2.159-.575zm-107.35 30.939c.188 0 .408.046.576.143l12.304 7.123c.334.193.576.55.576.935v14.246c0 .387-.24.743-.576.936l-12.304 7.123a1.088 1.088 0 0 1-1.079 0l-12.303-7.123c-.335-.194-.576-.549-.576-.936V91.758c0-.386.242-.74.576-.935l12.303-7.122a.948.948 0 0 1 .504-.143v-.001z"/><path fill="#83CD29" d="M148.714 52.402c-.748 0-1.488.19-2.158.576l-35.903 20.65c-1.343.773-2.159 2.265-2.159 3.813v41.443c0 1.55.817 2.966 2.159 3.742l35.903 20.721a4.297 4.297 0 0 0 4.317 0l35.903-20.721a4.308 4.308 0 0 0 2.158-3.742V77.441c0-1.55-.816-3.04-2.158-3.813l-35.903-20.65a4.297 4.297 0 0 0-2.159-.576zm214.699 36.983c-.143 0-.302 0-.431.072l-6.907 4.029a.84.84 0 0 0-.432.72v7.914a.84.84 0 0 0 .432.72l6.907 3.957c.259.15.535.15.791 0l6.907-3.958a.846.846 0 0 0 .432-.719v-7.915a.846.846 0 0 0-.432-.719l-6.907-4.03c-.128-.075-.216-.07-.36-.07z"/></symbol><symbol id="sass" xmlns="http://www.w3.org/2000/svg" viewBox="0 0 32 32"><path d="M26.11 17.572a5.8 5.8 0 0 0-2.537.588 5.345 5.345 0 0 1-.568-1.314 3.53 3.53 0 0 1-.051-1.1 9.811 9.811 0 0 1 .332-1.192c-.005-.051-.061-.292-.624-.3s-1.048.107-1.1.256a6.171 6.171 0 0 0-.235.834 19.686 19.686 0 0 1-1.713 3.294 3.186 3.186 0 0 1-.44-2.066 9.811 9.811 0 0 1 .332-1.192c-.005-.051-.061-.292-.624-.3s-1.048.107-1.1.256-.118.5-.235.834-1.483 3.386-1.841 4.173c-.184.4-.343.726-.455.946a.233.233 0 0 1-.02.041l-.153.292v.005c-.077.138-.159.266-.2.266a1.711 1.711 0 0 1 .01-.869c.2-1.059.69-2.705.685-2.762 0-.031.092-.317-.317-.465a.508.508 0 0 0-.578.1c-.036 0-.061.087-.061.087s.445-1.851-.849-1.851a3.855 3.855 0 0 0-2.475 1.683c-.348.189-1.089.593-1.882 1.028-.3.169-.614.338-.905.5-.02-.02-.041-.046-.061-.066C6.87 17.6 3.975 16.416 4.1 14.171c.046-.818.327-2.966 5.559-5.575 4.306-2.122 7.733-1.534 8.326-.23.849 1.862-1.836 5.319-6.285 5.82a3.351 3.351 0 0 1-2.813-.711c-.235-.256-.271-.271-.358-.22-.143.077-.051.307 0 .44a2.626 2.626 0 0 0 1.606 1.263 8.55 8.55 0 0 0 5.217-.517c2.7-1.043 4.8-3.943 4.184-6.372-.619-2.465-4.71-3.278-8.582-1.9a19.5 19.5 0 0 0-6.595 3.783c-2.133 1.995-2.47 3.728-2.332 4.455.5 2.578 4.051 4.255 5.472 5.5a8.554 8.554 0 0 1-.194.107c-.711.353-3.421 1.77-4.1 3.268-.767 1.7.123 2.915.711 3.079a4.374 4.374 0 0 0 4.71-1.908 4.725 4.725 0 0 0 .423-4.353.107.107 0 0 0-.02-.031l.557-.327a27.2 27.2 0 0 1 1.028-.578 6.74 6.74 0 0 0-.363 1.862 3.886 3.886 0 0 0 .834 2.7.921.921 0 0 0 .675.22c.6 0 .875-.5 1.176-1.094.368-.726.7-1.57.7-1.57s-.414 2.281.711 2.281c.409 0 .823-.532 1.008-.8v.005l.031-.051.066-.107v-.01c.164-.286.532-.936 1.079-2.015.706-1.391 1.386-3.13 1.386-3.13a8.888 8.888 0 0 0 .271 1.13 10.643 10.643 0 0 0 .583 1.309c-.164.23-.266.358-.266.358l.005.005c-.133.174-.276.363-.435.547a16.3 16.3 0 0 0-1.314 1.647.447.447 0 0 0 .123.6 1.116 1.116 0 0 0 .685.113 3.147 3.147 0 0 0 1.028-.235 3.45 3.45 0 0 0 .885-.465 1.98 1.98 0 0 0 .849-1.744 3.521 3.521 0 0 0-.322-1.233c.051-.072.1-.143.148-.215a23.428 23.428 0 0 0 1.534-2.649 8.888 8.888 0 0 0 .271 1.13 7.57 7.57 0 0 0 .5 1.125 4.861 4.861 0 0 0-1.497 1.922c-.322.931-.072 1.35.4 1.447a1.425 1.425 0 0 0 .747-.153 3.4 3.4 0 0 0 .946-.486 2.126 2.126 0 0 0 1.043-1.729 3.268 3.268 0 0 0-.235-1.023 5.356 5.356 0 0 1 2.716-.312c2.434.286 2.915 1.805 2.823 2.445a1.618 1.618 0 0 1-.772 1.094c-.169.107-.225.143-.21.22.02.113.1.107.245.087A1.9 1.9 0 0 0 30 20.7c.077-1.5-1.355-3.145-3.887-3.13ZM7.33 23.9c-.808.88-1.933 1.212-2.419.931-.522-.3-.317-1.6.675-2.532a12.884 12.884 0 0 1 1.9-1.417c.118-.072.292-.174.5-.3l.056-.031.123-.077A3.493 3.493 0 0 1 7.33 23.9Zm5.881-4c-.281.685-.869 2.44-1.227 2.342-.307-.082-.5-1.412-.061-2.726a6.193 6.193 0 0 1 .956-1.754c.44-.491.926-.655 1.043-.455a9.062 9.062 0 0 1-.711 2.593Zm4.853 2.322c-.118.061-.23.1-.281.072-.036-.02.051-.1.051-.1s.609-.655.849-.951c.138-.174.3-.378.476-.609v.066c0 .782-.757 1.309-1.094 1.524Zm3.744-.854c-.087-.061-.072-.266.22-.905a3.408 3.408 0 0 1 .834-1.074 1.448 1.448 0 0 1 .082.471 1.547 1.547 0 0 1-1.135 1.509Z" style="fill:#cd6799"/></symbol><symbol id="link" xmlns="http://www.w3.org/2000/svg" fill="none"><defs><clipPath id="a"><path fill="#fff" fill-opacity="0" d="M0 0h20v20H0z"/></clipPath></defs><path fill="none" d="M0 0h20v20H0z"/><g stroke="var(--main-color)" stroke-linecap="round" stroke-linejoin="round" stroke-width="1.667" clip-path="url(#a)"><path d="M11.287 8.713a3.64 3.64 0 0 0-5.147 0l-2.574 2.574a3.64 3.64 0 1 0 5.147 5.147L10 15.147"/><path d="M8.713 11.287a3.64 3.64 0 0 0 5.147 0l2.574-2.574a3.64 3.64 0 1 0-5.147-5.147L10 4.853"/></g></symbol><symbol id="react" xmlns="http://www.w3.org/2000/svg"  fill="none" viewBox="0 0 32 32"><path fill="#53C1DE" d="M18.679 15.976c0-1.435-1.2-2.598-2.679-2.598-1.48 0-2.679 1.163-2.679 2.598 0 1.434 1.2 2.597 2.679 2.597 1.48 0 2.679-1.163 2.679-2.597Z"/><path fill="#53C1DE" fill-rule="evenodd" d="M24.7 11.154c.566-2.23 1.277-6.363-1.23-7.764-2.495-1.395-5.742 1.278-7.456 2.883-1.71-1.589-5.048-4.25-7.552-2.845-2.494 1.4-1.725 5.465-1.147 7.708-2.327.64-6.315 2.02-6.315 4.84 0 2.811 3.984 4.313 6.297 4.953-.58 2.255-1.311 6.262 1.186 7.659 2.514 1.405 5.842-1.194 7.572-2.816 1.726 1.614 4.942 4.23 7.437 2.83 2.504-1.406 1.852-5.484 1.273-7.74 2.242-.641 6.235-2.11 6.235-4.886 0-2.793-4.01-4.184-6.3-4.822Zm-.284 8.513a28.65 28.65 0 0 0-1.519-3.685 28.625 28.625 0 0 0 1.46-3.631c1.679.472 5.361 1.55 5.361 3.625 0 2.094-3.533 3.183-5.302 3.691Zm-1.566 7.859c-1.862 1.045-4.628-1.456-5.902-2.645a29.352 29.352 0 0 0 2.514-3.096c1.45-.125 2.821-.329 4.064-.607.407 1.595 1.194 5.298-.676 6.348Zm-13.726-.015c-1.863-1.041-1.011-4.616-.584-6.278 1.228.264 2.589.453 4.042.568.83 1.132 1.7 2.173 2.576 3.085-1.083 1.015-4.163 3.671-6.034 2.625ZM2.28 15.976c0-2.102 3.661-3.173 5.378-3.643a29.257 29.257 0 0 0 1.462 3.673 29.689 29.689 0 0 0-1.48 3.726c-1.637-.454-5.36-1.653-5.36-3.756ZM9.104 4.504c1.87-1.05 4.77 1.506 6.012 2.656a29.97 29.97 0 0 0-2.556 3.066c-1.41.127-2.761.33-4.003.604-.466-1.81-1.321-5.278.547-6.326Zm11.275 7.073c.957.117 1.875.273 2.736.464-.259.803-.581 1.643-.96 2.504a41.165 41.165 0 0 0-1.776-2.968Zm-4.365-3.529c.591.621 1.183 1.314 1.766 2.066a38.897 38.897 0 0 0-3.546 0 27.651 27.651 0 0 1 1.78-2.066Zm-6.157 6.496a26.884 26.884 0 0 1-.954-2.517 29.762 29.762 0 0 1 2.72-.452 36.303 36.303 0 0 0-1.766 2.97Zm1.793 5.922a28.076 28.076 0 0 1-2.764-.431c.264-.83.59-1.692.972-2.568a36.306 36.306 0 0 0 1.792 2.999Zm4.4 3.525a28.142 28.142 0 0 1-1.805-2.094c1.188.045 2.378.045 3.566-.006a26.611 26.611 0 0 1-1.761 2.1Zm6.117-6.569c.4.886.739 1.744 1.007 2.559a27.97 27.97 0 0 1-2.798.462c.639-.982 1.239-1.99 1.79-3.02Zm-3.42 3.172a41.486 41.486 0 0 1-5.463.01 34.923 34.923 0 0 1-2.746-4.598 34.908 34.908 0 0 1 2.73-4.59c1.82-.133 3.65-.134 5.469 0a39.137 39.137 0 0 1 2.739 4.572 39.146 39.146 0 0 1-2.729 4.606ZM22.83 4.467c1.87 1.046 1.038 4.76.63 6.376a31.597 31.597 0 0 0-4.012-.615 29.379 29.379 0 0 0-2.536-3.069c1.258-1.175 4.066-3.728 5.918-2.692Z" clip-rule="evenodd"/></symbol><symbol id="css" xmlns="http://www.w3.org/2000/svg" fill="none" viewBox="0 0 32 32"><path fill="#1172B8" d="M6 28 4 3h24l-2 25-10 3-10-3Z"/><path fill="#3AD" d="M26 5H16v24.5l8-2.5 2-22Z"/><path fill="#fff" d="M19.5 17.5h-10L9 14l8-2.5H9l-.5-3H24l-.5 3.5-6.5 2.5h6L22 24l-6 2-6-2-.5-5h3l.5 2.5 3 1 3-1 .5-4Z"/></symbol><symbol  id="html"  viewBox="0 0 32 32" fill="none" xmlns="http://www.w3.org/2000/svg"><path d="M6 28L4 3H28L26 28L16 31L6 28Z" fill="#E44D26"/><path d="M26 5H16V29.5L24 27L26 5Z" fill="#F16529"/><path d="M9.5 17.5L8.5 8H24L23.5 11H11.5L12 14.5H23L22 24L16 26L10 24L9.5 19H12.5L13 21.5L16 22.5L19 21.5L19.5 17.5H9.5Z" fill="white"/></symbol><symbol id="redux" xmlns="http://www.w3.org/2000/svg" fill="none" viewBox="0 0 32 32"><path fill="#764ABC" d="M21.787 21.556a2.114 2.114 0 0 0 1.909-2.177c-.039-1.126-.993-2.027-2.138-2.027h-.077a2.115 2.115 0 0 0-2.061 2.177c.038.563.267 1.051.61 1.389-1.297 2.515-3.283 4.354-6.26 5.893-2.024 1.05-4.123 1.426-6.223 1.163-1.718-.225-3.054-.976-3.894-2.214-1.222-1.84-1.336-3.829-.305-5.818.725-1.426 1.87-2.477 2.596-3.003a19.962 19.962 0 0 1-.497-1.914c-5.535 3.941-4.963 9.27-3.283 11.786 1.26 1.876 3.818 3.04 6.643 3.04.763 0 1.527-.075 2.29-.263 4.887-.938 8.59-3.79 10.69-8.032Zm6.719-4.654c-2.901-3.34-7.177-5.18-12.064-5.18h-.61a2.102 2.102 0 0 0-1.871-1.126h-.077a2.115 2.115 0 0 0-2.061 2.177c.038 1.126.992 2.027 2.138 2.027h.076a2.15 2.15 0 0 0 1.87-1.276h.688c2.901 0 5.65.825 8.132 2.44 1.908 1.238 3.283 2.852 4.046 4.804.65 1.576.61 3.115-.076 4.429-1.07 1.989-2.863 3.077-5.23 3.077-1.527 0-2.978-.45-3.742-.788a22.52 22.52 0 0 1-1.718 1.351c1.642.751 3.322 1.164 4.925 1.164 3.665 0 6.376-1.99 7.406-3.979 1.107-2.177 1.031-5.93-1.832-9.12ZM9.112 22.194c.039 1.126.993 2.027 2.138 2.027h.077a2.115 2.115 0 0 0 2.061-2.177c-.038-1.126-.993-2.027-2.138-2.027h-.076c-.076 0-.191 0-.267.037-1.566-2.552-2.215-5.33-1.985-8.332.152-2.252.916-4.204 2.252-5.818 1.107-1.388 3.245-2.064 4.696-2.101 4.046-.076 5.764 4.879 5.879 6.868.496.113 1.336.376 1.909.563-.459-6.08-4.276-9.233-7.941-9.233-3.436 0-6.605 2.44-7.865 6.043-1.756 4.804-.61 9.42 1.527 13.061-.19.263-.305.676-.267 1.089Z"/></symbol><symbol id="tailwind" xmlns="http://www.w3.org/2000/svg"  viewBox="0 0 32 32"><path d="M9 13.7q1.4-5.6 7-5.6c5.6 0 6.3 4.2 9.1 4.9q2.8.7 4.9-2.1-1.4 5.6-7 5.6c-5.6 0-6.3-4.2-9.1-4.9q-2.8-.7-4.9 2.1Zm-7 8.4q1.4-5.6 7-5.6c5.6 0 6.3 4.2 9.1 4.9q2.8.7 4.9-2.1-1.4 5.6-7 5.6c-5.6 0-6.3-4.2-9.1-4.9q-2.8-.7-4.9 2.1Z" style="fill:#44a8b3"/></symbol><symbol xmlns="http://www.w3.org/2000/svg" width="800" height="800" fill="none" viewBox="0 0 32 32"><path fill="#1172B8" d="M6 28 4 3h24l-2 25-10 3-10-3Z"/><path fill="#3AD" d="M26 5H16v24.5l8-2.5 2-22Z"/><path fill="#fff" d="M19.5 17.5h-10L9 14l8-2.5H9l-.5-3H24l-.5 3.5-6.5 2.5h6L22 24l-6 2-6-2-.5-5h3l.5 2.5 3 1 3-1 .5-4Z"/></symbol><symbol id="js" xmlns="http://www.w3.org/2000/svg"  preserveAspectRatio="xMinYMin meet" viewBox="0 0 256 256"><path fill="#F7DF1E" d="M0 0h256v256H0V0z"/><path d="m67.312 213.932 19.59-11.856c3.78 6.701 7.218 12.371 15.465 12.371 7.905 0 12.89-3.092 12.89-15.12v-81.798h24.057v82.138c0 24.917-14.606 36.259-35.916 36.259-19.245 0-30.416-9.967-36.087-21.996m85.07-2.576 19.588-11.341c5.157 8.421 11.859 14.607 23.715 14.607 9.969 0 16.325-4.984 16.325-11.858 0-8.248-6.53-11.17-17.528-15.98l-6.013-2.58c-17.357-7.387-28.87-16.667-28.87-36.257 0-18.044 13.747-31.792 35.228-31.792 15.294 0 26.292 5.328 34.196 19.247l-18.732 12.03c-4.125-7.389-8.591-10.31-15.465-10.31-7.046 0-11.514 4.468-11.514 10.31 0 7.217 4.468 10.14 14.778 14.608l6.014 2.577c20.45 8.765 31.963 17.7 31.963 37.804 0 21.654-17.012 33.51-39.867 33.51-22.339 0-36.774-10.654-43.819-24.574"/></symbol><symbol id="telegram"  viewBox="0 0 50 50"><path d="M25,2c12.703,0,23,10.297,23,23S37.703,48,25,48S2,37.703,2,25S12.297,2,25,2z M32.934,34.375	c0.423-1.298,2.405-14.234,2.65-16.783c0.074-0.772-0.17-1.285-0.648-1.514c-0.578-0.278-1.434-0.139-2.427,0.219	c-1.362,0.491-18.774,7.884-19.78,8.312c-0.954,0.405-1.856,0.847-1.856,1.487c0,0.45,0.267,0.703,1.003,0.966	c0.766,0.273,2.695,0.858,3.834,1.172c1.097,0.303,2.346,0.04,3.046-0.395c0.742-0.461,9.305-6.191,9.92-6.693	c0.614-0.502,1.104,0.141,0.602,0.644c-0.502,0.502-6.38,6.207-7.155,6.997c-0.941,0.959-0.273,1.953,0.358,2.351	c0.721,0.454,5.906,3.932,6.687,4.49c0.781,0.558,1.573,0.811,2.298,0.811C32.191,36.439,32.573,35.484,32.934,34.375z"/></symbol><symbol id="github" viewBox="0 0 32 32"><path  fill-rule="evenodd" d="M15 0C6.713 0 0 6.713 0 15c0 6.637 4.294 12.244 10.256 14.231.75.131 1.031-.319 1.031-.712 0-.356-.018-1.538-.018-2.794-3.769.694-4.744-.919-5.044-1.763-.169-.43-.9-1.762-1.537-2.118-.526-.282-1.275-.975-.02-.994 1.182-.019 2.026 1.087 2.307 1.537 1.35 2.27 3.506 1.632 4.369 1.238.131-.975.525-1.631.956-2.006-3.338-.375-6.825-1.669-6.825-7.406 0-1.632.581-2.982 1.538-4.032-.15-.375-.675-1.912.15-3.975 0 0 1.256-.394 4.124 1.538 1.2-.338 2.475-.506 3.75-.506s2.55.168 3.75.506c2.87-1.95 4.126-1.538 4.126-1.538.825 2.063.3 3.6.15 3.975.956 1.05 1.537 2.382 1.537 4.032 0 5.756-3.506 7.03-6.844 7.406.544.468 1.013 1.369 1.013 2.775 0 2.006-.019 3.619-.019 4.125 0 .394.281.862 1.031.712A15.025 15.025 0 0 0 30 15c0-8.287-6.712-15-15-15Z" clip-rule="evenodd"/></symbol><symbol id="vscode" xmlns="http://www.w3.org/2000/svg" viewBox="0 0 32 32"><path d="m29.01 5.03-5.766-2.776a1.742 1.742 0 0 0-1.989.338L2.38 19.8a1.166 1.166 0 0 0-.08 1.647c.025.027.05.053.077.077l1.541 1.4a1.165 1.165 0 0 0 1.489.066L28.142 5.75A1.158 1.158 0 0 1 30 6.672v-.067a1.748 1.748 0 0 0-.99-1.575Z" style="fill:#0065a9"/><path d="m29.01 26.97-5.766 2.777a1.745 1.745 0 0 1-1.989-.338L2.38 12.2a1.166 1.166 0 0 1-.08-1.647c.025-.027.05-.053.077-.077l1.541-1.4A1.165 1.165 0 0 1 5.41 9.01l22.732 17.24A1.158 1.158 0 0 0 30 25.328v.072a1.749 1.749 0 0 1-.99 1.57Z" style="fill:#007acc"/><path d="M23.244 29.747a1.745 1.745 0 0 1-1.989-.338A1.025 1.025 0 0 0 23 28.684V3.316a1.024 1.024 0 0 0-1.749-.724 1.744 1.744 0 0 1 1.989-.339l5.765 2.772A1.748 1.748 0 0 1 30 6.6v18.8a1.748 1.748 0 0 1-.991 1.576Z" style="fill:#1f9cf0"/></symbol><symbol id="linkedin" viewBox="0 0 20 20"><path d="M10 0.4c-5.302 0-9.6 4.298-9.6 9.6s4.298 9.6 9.6 9.6 9.6-4.298 9.6-9.6-4.298-9.6-9.6-9.6zM7.65 13.979h-1.944v-6.256h1.944v6.256zM6.666 6.955c-0.614 0-1.011-0.435-1.011-0.973 0-0.549 0.409-0.971 1.036-0.971s1.011 0.422 1.023 0.971c0 0.538-0.396 0.973-1.048 0.973zM14.75 13.979h-1.944v-3.467c0-0.807-0.282-1.355-0.985-1.355-0.537 0-0.856 0.371-0.997 0.728-0.052 0.127-0.065 0.307-0.065 0.486v3.607h-1.945v-4.26c0-0.781-0.025-1.434-0.051-1.996h1.689l0.089 0.869h0.039c0.256-0.408 0.883-1.010 1.932-1.010 1.279 0 2.238 0.857 2.238 2.699v3.699z"></path></symbol><symbol id="telegram" ><path d="M25,2c12.703,0,23,10.297,23,23S37.703,48,25,48S2,37.703,2,25S12.297,2,25,2z M32.934,34.375	c0.423-1.298,2.405-14.234,2.65-16.783c0.074-0.772-0.17-1.285-0.648-1.514c-0.578-0.278-1.434-0.139-2.427,0.219	c-1.362,0.491-18.774,7.884-19.78,8.312c-0.954,0.405-1.856,0.847-1.856,1.487c0,0.45,0.267,0.703,1.003,0.966	c0.766,0.273,2.695,0.858,3.834,1.172c1.097,0.303,2.346,0.04,3.046-0.395c0.742-0.461,9.305-6.191,9.92-6.693	c0.614-0.502,1.104,0.141,0.602,0.644c-0.502,0.502-6.38,6.207-7.155,6.997c-0.941,0.959-0.273,1.953,0.358,2.351	c0.721,0.454,5.906,3.932,6.687,4.49c0.781,0.558,1.573,0.811,2.298,0.811C32.191,36.439,32.573,35.484,32.934,34.375z"/></symbol></defs></svg>