<svg aria-hidden="true" style="position:absolute;width: 0; height: 0;overflow:hidden" version="1.1" xmlns="http://www.w3.org/2000/svg"><defs><symbol id="telegram"  viewBox="0 0 50 50"><path d="M25,2c12.703,0,23,10.297,23,23S37.703,48,25,48S2,37.703,2,25S12.297,2,25,2z M32.934,34.375	c0.423-1.298,2.405-14.234,2.65-16.783c0.074-0.772-0.17-1.285-0.648-1.514c-0.578-0.278-1.434-0.139-2.427,0.219	c-1.362,0.491-18.774,7.884-19.78,8.312c-0.954,0.405-1.856,0.847-1.856,1.487c0,0.45,0.267,0.703,1.003,0.966	c0.766,0.273,2.695,0.858,3.834,1.172c1.097,0.303,2.346,0.04,3.046-0.395c0.742-0.461,9.305-6.191,9.92-6.693	c0.614-0.502,1.104,0.141,0.602,0.644c-0.502,0.502-6.38,6.207-7.155,6.997c-0.941,0.959-0.273,1.953,0.358,2.351	c0.721,0.454,5.906,3.932,6.687,4.49c0.781,0.558,1.573,0.811,2.298,0.811C32.191,36.439,32.573,35.484,32.934,34.375z"/></symbol><symbol id="github" viewBox="0 0 32 32"><path  fill-rule="evenodd" d="M15 0C6.713 0 0 6.713 0 15c0 6.637 4.294 12.244 10.256 14.231.75.131 1.031-.319 1.031-.712 0-.356-.018-1.538-.018-2.794-3.769.694-4.744-.919-5.044-1.763-.169-.43-.9-1.762-1.537-2.118-.526-.282-1.275-.975-.02-.994 1.182-.019 2.026 1.087 2.307 1.537 1.35 2.27 3.506 1.632 4.369 1.238.131-.975.525-1.631.956-2.006-3.338-.375-6.825-1.669-6.825-7.406 0-1.632.581-2.982 1.538-4.032-.15-.375-.675-1.912.15-3.975 0 0 1.256-.394 4.124 1.538 1.2-.338 2.475-.506 3.75-.506s2.55.168 3.75.506c2.87-1.95 4.126-1.538 4.126-1.538.825 2.063.3 3.6.15 3.975.956 1.05 1.537 2.382 1.537 4.032 0 5.756-3.506 7.03-6.844 7.406.544.468 1.013 1.369 1.013 2.775 0 2.006-.019 3.619-.019 4.125 0 .394.281.862 1.031.712A15.025 15.025 0 0 0 30 15c0-8.287-6.712-15-15-15Z" clip-rule="evenodd"/></symbol><symbol id="linkedin" viewBox="0 0 32 32"><g clip-path="url(#a)"><path  d="M15 .6C7.047.6.6 7.047.6 15S7.047 29.4 15 29.4 29.4 22.953 29.4 15 22.953.6 15 .6Zm-3.525 20.368H8.559v-9.383h2.916v9.383ZM9.999 10.432c-.921 0-1.516-.652-1.516-1.459 0-.824.613-1.457 1.553-1.457.941 0 1.517.633 1.535 1.457 0 .807-.594 1.46-1.572 1.46Zm12.126 10.536h-2.916v-5.2c0-1.21-.423-2.033-1.477-2.033-.806 0-1.284.557-1.496 1.093-.078.19-.098.46-.098.729v5.41h-2.917v-6.39c0-1.171-.037-2.151-.076-2.994h2.533l.133 1.303h.059c.384-.611 1.325-1.514 2.898-1.514 1.918 0 3.357 1.285 3.357 4.048v5.548Z"/></g><defs><clipPath id="a"><path fill="#fff" d="M0 0h30v30H0z"/></symbol><symbol id="telegram" ><path d="M25,2c12.703,0,23,10.297,23,23S37.703,48,25,48S2,37.703,2,25S12.297,2,25,2z M32.934,34.375	c0.423-1.298,2.405-14.234,2.65-16.783c0.074-0.772-0.17-1.285-0.648-1.514c-0.578-0.278-1.434-0.139-2.427,0.219	c-1.362,0.491-18.774,7.884-19.78,8.312c-0.954,0.405-1.856,0.847-1.856,1.487c0,0.45,0.267,0.703,1.003,0.966	c0.766,0.273,2.695,0.858,3.834,1.172c1.097,0.303,2.346,0.04,3.046-0.395c0.742-0.461,9.305-6.191,9.92-6.693	c0.614-0.502,1.104,0.141,0.602,0.644c-0.502,0.502-6.38,6.207-7.155,6.997c-0.941,0.959-0.273,1.953,0.358,2.351	c0.721,0.454,5.906,3.932,6.687,4.49c0.781,0.558,1.573,0.811,2.298,0.811C32.191,36.439,32.573,35.484,32.934,34.375z"/></symbol></defs></svg>